<?xml version="1.0" standalone="no"?>
<!DOCTYPE svg PUBLIC "-//W3C//DTD SVG 20010904//EN" "http://www.w3.org/TR/2001/REC-SVG-20010904/DTD/svg10.dtd">
<!-- Created using Krita: https://krita.org -->
<svg xmlns="http://www.w3.org/2000/svg" 
    xmlns:xlink="http://www.w3.org/1999/xlink"
    xmlns:krita="http://krita.org/namespaces/svg/krita"
    xmlns:sodipodi="http://sodipodi.sourceforge.net/DTD/sodipodi-0.dtd"
    width="757.92pt"
    height="174pt"
    viewBox="0 0 757.92 174">
<defs/>
<path id="shape0" transform="translate(10.5126927094462, 11.5037662600568)" fill="none" stroke="#000000" stroke-width="1.53999999999988" stroke-linecap="square" stroke-linejoin="bevel" d="M40.206 12.7721C42.5092 8.45026 41.9466 1.26251 40.0292 0C38.662 0.0949674 37.7242 1.22953 37.2998 2.80874C6.23736 118.384 -7.24933 136.072 3.83418 141.907C15.9132 148.267 58.2928 112.004 71.2373 115.746"/><path id="shape1" transform="translate(69.3081769806208, 65.3053253095415)" fill="none" stroke="#000000" stroke-width="1.53999999999988" stroke-linecap="square" stroke-linejoin="bevel" d="M21.0527 17.9256C5.15891 5.33545 -4.7464 40.553 2.31434 41.2601C9.3746 41.9672 17.8707 23.0521 18.7546 24.6431C18.7546 24.6431 15.0041 46.3236 25.6489 44.1947C38.1683 41.6908 54.9817 1.82684 53.7564 0.601463C49.1417 -4.01324 34.7315 19.2421 41.0284 25.527C46.068 29.3754 61.3578 16.6881 60.2971 20.0469C60.2971 20.0469 47.2643 53.5064 52.5189 59.2913C61.0426 65.8705 78.6289 25.7567 80.8032 23.5824C81.1041 23.2816 72.8316 47.3933 84.5155 44.1947C96.0416 40.8003 105.198 8.58096 120.578 13.1526C120.338 11.8326 97.395 11.728 110.932 39.6947C115.915 49.9908 122.376 60.6377 118.089 70.1387C115.982 75.0245 110.58 80.4401 104.572 82.1747C103.538 63.8057 150.512 -2.74941 159.942 16.1947C155.197 9.06467 141.951 15.9806 143.029 28.1786C143.528 33.8314 146.694 39.8681 149.844 45.9546C159.568 64.0108 155.211 79.417 142.612 82.8947C141.457 65.646 191.338 -3.06131 196.942 19.8197C190.443 5.03282 174.026 31.8378 178.384 40.553C181.534 44.1839 189.704 29.9327 194.192 23.5697C194.376 31.0477 194.353 44.701 202.067 45.9447C208.966 46.9136 219.377 33.7026 217.672 22.9547"/><path id="shape2" transform="translate(150.479999984403, 76.0277541420524)" fill="none" stroke="#000000" stroke-width="1.53999999999988" stroke-linecap="square" stroke-linejoin="bevel" d="M0.426868 2.16502C1.07658 7.38112 7.35557 -0.718756 0 0.0522459"/><path id="shape3" transform="translate(328.829107529928, 13.7500041438488)" fill="none" stroke="#000000" stroke-width="1.53999999999988" stroke-linecap="square" stroke-linejoin="bevel" d="M33.6709 0C22.9209 49.7754 1.15255 131.686 0.00349781 147.705C-0.145512 154.619 4.5113 147.098 5.39519 143.462"/><path id="shape4" transform="translate(321.08031838139, 12.9060304122503)" fill="none" stroke="#000000" stroke-width="1.53999999999988" stroke-linecap="square" stroke-linejoin="bevel" d="M1.7947 56.344C-13.3001 20.219 71.4159 -17.3442 84.2966 8.62981C103.925 48.2114 28.0144 119.77 25.0447 72.594"/><path id="shape5" transform="translate(398.279562926535, 18.0887001546147)" fill="none" stroke="#000000" stroke-width="1.53999999999988" stroke-linecap="square" stroke-linejoin="bevel" d="M19.9705 64.9113C12.426 55.7863 -6.42024 78.3956 2.22047 89.5363C5.02765 92.5135 11.7971 80.8186 17.2205 70.6613C18.1814 78.5624 18.3327 93.6719 23.9705 93.2863C35.9903 92.4643 40.7806 52.0363 58.0955 61.4113C42.2384 58.2863 39.8125 72.9982 48.216 91.032C50.1015 95.0784 58.5167 108.692 54.0774 119.109C51.5386 125.281 44.5056 128.868 42.3455 128.911C38.9705 124.743 49.3459 104.496 59.162 91.2017C72.0839 73.5839 89.5158 58.3472 87.2404 74.0713C87.0828 52.249 66.1266 93.0977 80.7249 97.4923C104.105 105.168 132.281 7.02435 133.22 0.786306C122.543 -0.060252 100.789 101.823 99.198 114.109C109.539 84.0573 115.01 75.7093 121.383 76.4559C125.442 80.9939 123.375 93.8174 128.366 94.5755C135.746 94.6605 147.595 71.519 152.67 68.9113C147.597 71.7827 142.787 85.3622 150.463 89.0954C159.901 93.6852 166.787 62.9604 154.706 66.468C149.365 72.516 155.342 81.9042 165.136 82.2895C176.28 82.1719 187.426 52.4323 195.47 66.5363C185.314 53.7502 171.588 82.8797 177.952 88.7419C184.159 91.5098 189.443 76.8068 192.978 70.5339C192.238 78.9038 193.976 93.5119 200.668 93.6033C210.986 95.1959 242.361 5.83473 238.852 0C230.369 2.84125 202.956 132.546 204.734 136.825C206.629 136.458 207.985 133.894 208.711 130.815"/><path id="shape6" transform="translate(626.541905905785, 28.7836847996506)" fill="none" stroke="#000000" stroke-width="1.53999999999988" stroke-linecap="square" stroke-linejoin="bevel" d="M6.70811 57.8413C0.320049 63.5913 -1.85502 70.5018 1.70816 76.3413C4.33561 80.6474 10.8695 79.3785 13.9581 69.8413C17.5888 58.6304 12.93 55.0839 9.93908 55.9843C6.53206 57.0099 4.73742 63.6455 10.0831 68.4663C15.912 73.7229 24.8801 71.8019 33.3584 54.2872C38.491 43.6844 42.3961 26.936 47.9581 4.21633C45.8331 21.9663 23.848 86.3711 28.3331 107.341C37.2022 105.83 66.6039 22.125 74.2289 0C62.1039 52.125 52.9577 92.9658 47.624 123.832C46.3124 131.422 43.397 145.118 52.1318 134.085"/><path id="shape7" transform="translate(697.596164147559, 85.5630347480375)" fill="none" stroke="#000000" stroke-width="1.53999999999988" stroke-linecap="square" stroke-linejoin="bevel" d="M6.0289 1.31199C-1.31894 7.81199 -0.465393 15.9176 0.964921 18.5275C4.14108 24.3231 10.8078 18.9635 12.5289 15.812C17.2862 7.10103 13.7563 1.12879 10.2884 0.180735C4.46886 -1.41025 5.63282 7.89551 10.7789 12.687C16.0912 17.6333 28.3177 15.0008 35.4364 2.44085"/><path id="shape8" transform="translate(631.999996651215, 52.6516887044625)" fill="none" stroke="#000000" stroke-width="1.53999999999988" stroke-linecap="square" stroke-linejoin="bevel" d="M0 2.72331C33.4363 1.97331 85.8866 -2.52669 115.125 1.97331"/>
</svg>
